<?xml version="1.0" encoding="utf-8"?>
<!-- Generator: Adobe Illustrator 16.0.4, SVG Export Plug-In . SVG Version: 6.00 Build 0)  -->
<!DOCTYPE svg PUBLIC "-//W3C//DTD SVG 1.1//EN" "http://www.w3.org/Graphics/SVG/1.1/DTD/svg11.dtd">
<svg version="1.1" id="Ebene_1" xmlns="http://www.w3.org/2000/svg" xmlns:xlink="http://www.w3.org/1999/xlink" x="0px" y="0px"
	 width="161.5px" height="127.5px" viewBox="0 0 161.5 127.5" enable-background="new 0 0 161.5 127.5" xml:space="preserve">
<g>
	<defs>
		<rect id="SVGID_1_" x="8.78" y="7.795" width="147.387" height="114.16"/>
	</defs>
	<clipPath id="SVGID_2_">
		<use xlink:href="#SVGID_1_"  overflow="visible"/>
	</clipPath>
	<path clip-path="url(#SVGID_2_)" fill="#2C3E50" d="M86.225,100.378c-4.199,0-6.765-4.142-6.765-7.99s2.566-8.047,6.765-8.047
		c4.199,0,6.766,4.198,6.766,8.047S90.424,100.378,86.225,100.378 M91.998,103.818v1.865c0,4.317-0.117,9.39-5.89,9.39
		c-3.091,0-5.249-1.982-5.657-5.015h-8.63c0.408,7.639,7.464,11.896,14.462,11.896c10.73,0,13.88-7.698,13.88-17.028V78.041h-8.165
		v2.741h-0.117c-1.632-2.216-4.548-3.674-7.405-3.674c-8.515,0-13.296,7.581-13.296,15.454c0,7.698,4.49,15.046,12.888,15.046
		c3.032,0,6.064-1.457,7.813-3.79H91.998z M41.555,106.676h8.164V88.831c0-6.24-1.808-11.723-9.098-11.723
		c-3.324,0-6.59,1.691-8.339,4.491c-1.866-3.033-4.665-4.491-8.223-4.491c-2.624,0-5.423,1.226-6.998,3.499h-0.116v-2.566H8.78
		v28.635h8.165V92.621c0-3.032-0.233-8.98,4.315-8.98c4.257,0,3.907,5.715,3.907,8.514v14.521h8.165V92.621
		c0-2.974-0.059-8.98,4.374-8.98c4.023,0,3.849,5.19,3.849,7.989V106.676z M70.343,57.369c-1.172-0.574-2.44-0.847-3.713-0.847
		c-7.873,0-10.788,6.124-10.788,13.121v8.397h-2.741v6.883h2.741v21.752h8.164V84.924h6.532v-6.883h-6.532v-7.23
		c0-2.333-0.408-7.056,3.208-7.056c0.14,0,0.269,0.024,0.404,0.037L70.343,57.369z"/>
	<path clip-path="url(#SVGID_2_)" fill="#3498DB" d="M134.749,103.357c0.097-1.057,1.045-1.958,2.188-1.958
		c1.155,0,2.008,0.925,2.141,1.958H134.749z M139.622,103.867c0.012-1.615-0.996-2.976-2.696-2.976
		c-1.642,0-2.723,1.348-2.723,2.914c0,1.593,1.057,2.941,2.723,2.941c1.105,0,2.006-0.545,2.514-1.519l-0.46-0.267
		c-0.4,0.753-1.106,1.275-1.981,1.275c-1.301,0-2.285-0.947-2.249-2.37H139.622z M128.491,101.013h-0.546v8.895h0.546v-4.252h0.023
		c0.462,0.716,1.303,1.092,2.164,1.092c1.69,0,2.745-1.238,2.745-2.879c0-1.642-1.055-2.977-2.769-2.977
		c-0.827,0-1.727,0.411-2.141,1.127h-0.023V101.013z M130.667,101.399c1.373,0,2.213,1.192,2.213,2.48
		c0,1.252-0.876,2.357-2.188,2.357c-1.35,0-2.237-0.984-2.237-2.297C128.454,102.592,129.232,101.399,130.667,101.399
		 M121.686,101.013h-0.546v8.895h0.546v-4.252h0.025c0.462,0.716,1.3,1.092,2.162,1.092c1.691,0,2.746-1.238,2.746-2.879
		c0-1.642-1.055-2.977-2.771-2.977c-0.826,0-1.726,0.411-2.138,1.127h-0.025V101.013z M123.862,101.399
		c1.373,0,2.211,1.192,2.211,2.48c0,1.252-0.875,2.357-2.188,2.357c-1.35,0-2.236-0.984-2.236-2.297
		C121.649,102.592,122.428,101.399,123.862,101.399 M118.808,101.013v3.171c0,1.081-0.123,2.054-1.472,2.054
		c-1.351,0-1.471-0.973-1.471-2.054v-3.171h-0.546v3.366c0,0.57-0.012,1.142,0.34,1.615c0.389,0.51,1.044,0.753,1.677,0.753
		c0.632,0,1.289-0.243,1.678-0.753c0.353-0.474,0.338-1.045,0.338-1.615v-3.366H118.808z M112.571,101.013h-0.546v5.612h0.546
		v-2.867c0-0.827-0.071-2.358,1.155-2.358c0.146,0,0.255,0.037,0.39,0.109l0.291-0.484c-0.194-0.084-0.378-0.133-0.597-0.133
		c-0.596,0-0.995,0.339-1.214,0.848h-0.025V101.013z M110.152,101.013h-0.543v0.971h-0.025c-0.522-0.705-1.204-1.092-2.115-1.092
		c-1.641,0-2.794,1.298-2.794,2.914c0,1.57,1.092,2.941,2.721,2.941c0.851,0,1.69-0.425,2.188-1.092h0.025v0.691
		c0,0.753-0.062,1.482-0.499,2.127c-0.415,0.596-1.095,0.839-1.799,0.839c-1.133,0-2.116-0.729-2.177-1.897h-0.545
		c0.085,1.545,1.299,2.407,2.77,2.407c0.887,0,1.715-0.364,2.237-1.081c0.532-0.741,0.556-1.521,0.556-2.382V101.013z
		 M107.396,101.399c1.361,0,2.25,1.021,2.25,2.322c0,1.349-0.778,2.516-2.214,2.516c-1.36,0-2.212-1.167-2.212-2.455
		C105.22,102.566,106.107,101.399,107.396,101.399"/>
	<path clip-path="url(#SVGID_2_)" fill="#2980B9" stroke="#2980B9" stroke-width="0.1" stroke-miterlimit="10" d="M134.749,103.357
		c0.097-1.057,1.045-1.958,2.188-1.958c1.155,0,2.008,0.925,2.141,1.958H134.749z M139.622,103.867
		c0.012-1.615-0.996-2.976-2.696-2.976c-1.642,0-2.723,1.348-2.723,2.914c0,1.593,1.057,2.941,2.723,2.941
		c1.105,0,2.006-0.545,2.514-1.519l-0.46-0.267c-0.4,0.753-1.106,1.275-1.981,1.275c-1.301,0-2.285-0.947-2.249-2.37H139.622z
		 M128.491,101.013h-0.546v8.895h0.546v-4.252h0.023c0.462,0.716,1.303,1.092,2.164,1.092c1.69,0,2.745-1.238,2.745-2.879
		c0-1.642-1.055-2.977-2.769-2.977c-0.827,0-1.727,0.411-2.141,1.127h-0.023V101.013z M130.667,101.399
		c1.373,0,2.213,1.192,2.213,2.48c0,1.252-0.876,2.357-2.188,2.357c-1.35,0-2.237-0.984-2.237-2.297
		C128.454,102.592,129.232,101.399,130.667,101.399z M121.686,101.013h-0.546v8.895h0.546v-4.252h0.025
		c0.462,0.716,1.3,1.092,2.162,1.092c1.691,0,2.746-1.238,2.746-2.879c0-1.642-1.055-2.977-2.771-2.977
		c-0.826,0-1.726,0.411-2.138,1.127h-0.025V101.013z M123.862,101.399c1.373,0,2.211,1.192,2.211,2.48
		c0,1.252-0.875,2.357-2.188,2.357c-1.35,0-2.236-0.984-2.236-2.297C121.649,102.592,122.428,101.399,123.862,101.399z
		 M118.808,101.013v3.171c0,1.081-0.123,2.054-1.472,2.054c-1.351,0-1.471-0.973-1.471-2.054v-3.171h-0.546v3.366
		c0,0.57-0.012,1.142,0.34,1.615c0.389,0.51,1.044,0.753,1.677,0.753c0.632,0,1.289-0.243,1.678-0.753
		c0.353-0.474,0.338-1.045,0.338-1.615v-3.366H118.808z M112.571,101.013h-0.546v5.612h0.546v-2.867
		c0-0.827-0.071-2.358,1.155-2.358c0.146,0,0.255,0.037,0.39,0.109l0.291-0.484c-0.194-0.084-0.378-0.133-0.597-0.133
		c-0.596,0-0.995,0.339-1.214,0.848h-0.025V101.013z M110.152,101.013h-0.543v0.971h-0.025c-0.522-0.705-1.204-1.092-2.115-1.092
		c-1.641,0-2.794,1.298-2.794,2.914c0,1.57,1.092,2.941,2.721,2.941c0.851,0,1.69-0.425,2.188-1.092h0.025v0.691
		c0,0.753-0.062,1.482-0.499,2.127c-0.415,0.596-1.095,0.839-1.799,0.839c-1.133,0-2.116-0.729-2.177-1.897h-0.545
		c0.085,1.545,1.299,2.407,2.77,2.407c0.887,0,1.715-0.364,2.237-1.081c0.532-0.741,0.556-1.521,0.556-2.382V101.013z
		 M107.396,101.399c1.361,0,2.25,1.021,2.25,2.322c0,1.349-0.778,2.516-2.214,2.516c-1.36,0-2.212-1.167-2.212-2.455
		C105.22,102.566,106.107,101.399,107.396,101.399z"/>
	<path clip-path="url(#SVGID_2_)" fill="#3498DB" d="M155.797,90.986c-0.242-0.522-0.862-0.897-1.434-0.897
		c-0.814,0-1.531,0.57-1.531,1.421c0,0.949,0.874,1.276,1.641,1.556c0.56,0.194,1.094,0.414,1.094,1.107
		c0,0.703-0.559,1.263-1.265,1.263c-0.741,0-1.19-0.474-1.397-1.142l-0.532,0.17c0.229,0.911,0.993,1.481,1.93,1.481
		c1.01,0,1.811-0.716,1.811-1.749c0-2.03-2.734-1.374-2.734-2.723c0-0.487,0.486-0.875,0.96-0.875c0.438,0,0.802,0.241,0.984,0.632
		L155.797,90.986z M151.093,90.212h-0.546v0.97h-0.023c-0.522-0.706-1.203-1.093-2.114-1.093c-1.643,0-2.795,1.3-2.795,2.916
		c0,1.568,1.093,2.94,2.722,2.94c0.851,0,1.689-0.424,2.188-1.093h0.023v0.693c0,0.751-0.06,1.48-0.498,2.125
		c-0.413,0.597-1.093,0.841-1.799,0.841c-1.13,0-2.115-0.729-2.175-1.897h-0.546c0.085,1.544,1.3,2.405,2.77,2.405
		c0.888,0,1.714-0.363,2.237-1.081c0.533-0.741,0.557-1.52,0.557-2.381V90.212z M148.336,90.599c1.361,0,2.248,1.021,2.248,2.322
		c0,1.349-0.778,2.515-2.212,2.515c-1.362,0-2.212-1.166-2.212-2.455C146.16,91.765,147.046,90.599,148.336,90.599 M140.667,90.212
		h-0.545v5.611h0.545v-2.77c0-1.144,0.23-2.455,1.642-2.455c1.229,0,1.349,0.826,1.349,1.834v3.391h0.546v-3.391
		c0-1.446-0.399-2.344-1.846-2.344c-0.73,0-1.337,0.375-1.666,0.995h-0.024V90.212z M137.788,90.212v3.171
		c0,1.081-0.12,2.053-1.471,2.053c-1.349,0-1.472-0.972-1.472-2.053v-3.171h-0.545v3.365c0,0.57-0.012,1.143,0.339,1.616
		c0.389,0.51,1.047,0.752,1.678,0.752c0.633,0,1.29-0.242,1.678-0.752c0.352-0.474,0.339-1.046,0.339-1.616v-3.365H137.788z
		 M128.432,85.8v10.023h0.545v-2.771c0-1.142,0.231-2.453,1.642-2.453c1.228,0,1.351,0.826,1.351,1.834v3.391h0.544v-3.391
		c0-1.446-0.4-2.344-1.846-2.344c-0.729,0-1.337,0.375-1.667,0.995h-0.023V85.8H128.432z M126.936,90.78
		c-0.56-0.473-1.228-0.691-1.956-0.691c-1.652,0-2.891,1.288-2.891,2.916c0,1.641,1.214,2.94,2.878,2.94
		c0.753,0,1.47-0.278,2.041-0.776v-0.742c-0.51,0.62-1.264,1.009-2.064,1.009c-1.325,0-2.311-1.154-2.311-2.431
		s0.997-2.406,2.323-2.406c0.802,0,1.445,0.327,1.979,0.911V90.78z M120.909,90.986c-0.242-0.522-0.862-0.897-1.435-0.897
		c-0.814,0-1.529,0.57-1.529,1.421c0,0.949,0.873,1.276,1.639,1.556c0.56,0.194,1.095,0.414,1.095,1.107
		c0,0.703-0.56,1.263-1.266,1.263c-0.741,0-1.19-0.474-1.396-1.142l-0.534,0.17c0.229,0.911,0.994,1.481,1.93,1.481
		c1.011,0,1.811-0.716,1.811-1.749c0-2.03-2.734-1.374-2.734-2.723c0-0.487,0.486-0.875,0.961-0.875
		c0.438,0,0.804,0.241,0.986,0.632L120.909,90.986z M115.244,90.212H114.7v5.611h0.544v-2.868c0-0.826-0.072-2.356,1.156-2.356
		c0.145,0,0.256,0.036,0.388,0.108l0.291-0.483c-0.193-0.086-0.376-0.135-0.595-0.135c-0.596,0-0.996,0.339-1.215,0.85h-0.025
		V90.212z M110.385,90.599c1.387,0,2.443,1.046,2.443,2.431c0,1.361-1.07,2.406-2.443,2.406c-1.326,0-2.334-1.13-2.334-2.406
		C108.051,91.729,109.048,90.599,110.385,90.599 M110.422,90.089c-1.629,0-2.916,1.324-2.916,2.94c0,1.593,1.299,2.916,2.916,2.916
		c1.652,0,2.952-1.263,2.952-2.928C113.374,91.351,112.074,90.089,110.422,90.089 M105.682,90.72h1.409v-0.508h-1.409v-2.408
		c0-0.705,0.012-1.653,0.96-1.653c0.158,0,0.305,0.049,0.449,0.073v-0.497c-0.157-0.062-0.315-0.085-0.486-0.085
		c-0.51,0-0.995,0.23-1.249,0.679c-0.208,0.366-0.22,0.961-0.22,1.375v2.517h-0.62v0.508h0.62v5.104h0.546V90.72z"/>
	<path clip-path="url(#SVGID_2_)" fill="#2980B9" stroke="#2980B9" stroke-width="0.1" stroke-miterlimit="10" d="M155.797,90.986
		c-0.242-0.522-0.862-0.897-1.434-0.897c-0.814,0-1.531,0.57-1.531,1.421c0,0.949,0.874,1.276,1.641,1.556
		c0.56,0.194,1.094,0.414,1.094,1.107c0,0.703-0.559,1.263-1.265,1.263c-0.741,0-1.19-0.474-1.397-1.142l-0.532,0.17
		c0.229,0.911,0.993,1.481,1.93,1.481c1.01,0,1.811-0.716,1.811-1.749c0-2.03-2.734-1.374-2.734-2.723
		c0-0.487,0.486-0.875,0.96-0.875c0.438,0,0.802,0.241,0.984,0.632L155.797,90.986z M151.093,90.212h-0.546v0.97h-0.023
		c-0.522-0.706-1.203-1.093-2.114-1.093c-1.643,0-2.795,1.3-2.795,2.916c0,1.568,1.093,2.94,2.722,2.94
		c0.851,0,1.689-0.424,2.188-1.093h0.023v0.693c0,0.751-0.06,1.48-0.498,2.125c-0.413,0.597-1.093,0.841-1.799,0.841
		c-1.13,0-2.115-0.729-2.175-1.897h-0.546c0.085,1.544,1.3,2.405,2.77,2.405c0.888,0,1.714-0.363,2.237-1.081
		c0.533-0.741,0.557-1.52,0.557-2.381V90.212z M148.336,90.599c1.361,0,2.248,1.021,2.248,2.322c0,1.349-0.778,2.515-2.212,2.515
		c-1.362,0-2.212-1.166-2.212-2.455C146.16,91.765,147.046,90.599,148.336,90.599z M140.667,90.212h-0.545v5.611h0.545v-2.77
		c0-1.144,0.23-2.455,1.642-2.455c1.229,0,1.349,0.826,1.349,1.834v3.391h0.546v-3.391c0-1.446-0.399-2.344-1.846-2.344
		c-0.73,0-1.337,0.375-1.666,0.995h-0.024V90.212z M137.788,90.212v3.171c0,1.081-0.12,2.053-1.471,2.053
		c-1.349,0-1.472-0.972-1.472-2.053v-3.171h-0.545v3.365c0,0.57-0.012,1.143,0.339,1.616c0.389,0.51,1.047,0.752,1.678,0.752
		c0.633,0,1.29-0.242,1.678-0.752c0.352-0.474,0.339-1.046,0.339-1.616v-3.365H137.788z M128.432,85.8v10.023h0.545v-2.771
		c0-1.142,0.231-2.453,1.642-2.453c1.228,0,1.351,0.826,1.351,1.834v3.391h0.544v-3.391c0-1.446-0.4-2.344-1.846-2.344
		c-0.729,0-1.337,0.375-1.667,0.995h-0.023V85.8H128.432z M126.936,90.78c-0.56-0.473-1.228-0.691-1.956-0.691
		c-1.652,0-2.891,1.288-2.891,2.916c0,1.641,1.214,2.94,2.878,2.94c0.753,0,1.47-0.278,2.041-0.776v-0.742
		c-0.51,0.62-1.264,1.009-2.064,1.009c-1.325,0-2.311-1.154-2.311-2.431s0.997-2.406,2.323-2.406c0.802,0,1.445,0.327,1.979,0.911
		V90.78z M120.909,90.986c-0.242-0.522-0.862-0.897-1.435-0.897c-0.814,0-1.529,0.57-1.529,1.421c0,0.949,0.873,1.276,1.639,1.556
		c0.56,0.194,1.095,0.414,1.095,1.107c0,0.703-0.56,1.263-1.266,1.263c-0.741,0-1.19-0.474-1.396-1.142l-0.534,0.17
		c0.229,0.911,0.994,1.481,1.93,1.481c1.011,0,1.811-0.716,1.811-1.749c0-2.03-2.734-1.374-2.734-2.723
		c0-0.487,0.486-0.875,0.961-0.875c0.438,0,0.804,0.241,0.986,0.632L120.909,90.986z M115.244,90.212H114.7v5.611h0.544v-2.868
		c0-0.826-0.072-2.356,1.156-2.356c0.145,0,0.256,0.036,0.388,0.108l0.291-0.483c-0.193-0.086-0.376-0.135-0.595-0.135
		c-0.596,0-0.996,0.339-1.215,0.85h-0.025V90.212z M110.385,90.599c1.387,0,2.443,1.046,2.443,2.431c0,1.361-1.07,2.406-2.443,2.406
		c-1.326,0-2.334-1.13-2.334-2.406C108.051,91.729,109.048,90.599,110.385,90.599z M110.422,90.089c-1.629,0-2.916,1.324-2.916,2.94
		c0,1.593,1.299,2.916,2.916,2.916c1.652,0,2.952-1.263,2.952-2.928C113.374,91.351,112.074,90.089,110.422,90.089z M105.682,90.72
		h1.409v-0.508h-1.409v-2.408c0-0.705,0.012-1.653,0.96-1.653c0.158,0,0.305,0.049,0.449,0.073v-0.497
		c-0.157-0.062-0.315-0.085-0.486-0.085c-0.51,0-0.995,0.23-1.249,0.679c-0.208,0.366-0.22,0.961-0.22,1.375v2.517h-0.62v0.508h0.62
		v5.104h0.546V90.72z"/>
	<path clip-path="url(#SVGID_2_)" fill="#3498DB" d="M132.658,80.404c0.099-1.059,1.046-1.959,2.188-1.959
		c1.155,0,2.007,0.926,2.14,1.959H132.658z M137.532,80.912c0.012-1.614-0.995-2.975-2.697-2.975c-1.642,0-2.721,1.349-2.721,2.915
		c0,1.593,1.056,2.939,2.721,2.939c1.105,0,2.005-0.544,2.515-1.517l-0.46-0.268c-0.401,0.754-1.106,1.276-1.981,1.276
		c-1.301,0-2.287-0.949-2.25-2.372H137.532z M130.788,73.647h-0.546v10.023h0.546V73.647z M127.884,75.688
		c-0.279,0-0.497,0.23-0.497,0.498c0,0.278,0.218,0.498,0.497,0.498c0.28,0,0.498-0.22,0.498-0.498
		C128.382,75.919,128.164,75.688,127.884,75.688 M128.15,78.059h-0.546v5.612h0.546V78.059z M120.593,83.671h0.546v-1.007h0.024
		c0.414,0.717,1.312,1.128,2.14,1.128c1.702,0,2.771-1.322,2.771-2.964c0-1.641-1.068-2.891-2.746-2.891
		c-0.863,0-1.689,0.388-2.164,1.092h-0.024v-5.382h-0.546V83.671z M123.313,83.284c-1.384,0-2.211-1.131-2.211-2.443
		c0-1.338,0.814-2.396,2.237-2.396c1.3,0,2.188,1.156,2.188,2.383C125.527,82.116,124.689,83.284,123.313,83.284 M116.279,78.445
		c1.385,0,2.444,1.046,2.444,2.432c0,1.361-1.071,2.407-2.444,2.407c-1.325,0-2.334-1.131-2.334-2.407
		C113.945,79.576,114.942,78.445,116.279,78.445 M116.315,77.938c-1.628,0-2.915,1.322-2.915,2.939c0,1.593,1.298,2.915,2.915,2.915
		c1.653,0,2.952-1.263,2.952-2.928C119.268,79.2,117.969,77.938,116.315,77.938 M105.682,78.059h-0.546v5.612h0.546v-3.085
		c0-0.913,0.218-2.141,1.398-2.141c1.094,0,1.253,0.888,1.253,1.763v3.463h0.546v-3.232c0-0.971,0.279-1.993,1.446-1.993
		c1.069,0,1.203,0.767,1.203,1.629v3.597h0.546v-3.523c0-1.228-0.291-2.21-1.736-2.21c-0.718,0-1.339,0.351-1.643,1.02
		c-0.29-0.656-0.861-1.02-1.579-1.02c-0.597,0-1.155,0.303-1.41,0.824h-0.024V78.059z"/>
	<path clip-path="url(#SVGID_2_)" fill="#2980B9" stroke="#2980B9" stroke-width="0.1" stroke-miterlimit="10" d="M132.658,80.404
		c0.099-1.059,1.046-1.959,2.188-1.959c1.155,0,2.007,0.926,2.14,1.959H132.658z M137.532,80.912
		c0.012-1.614-0.995-2.975-2.697-2.975c-1.642,0-2.721,1.349-2.721,2.915c0,1.593,1.056,2.939,2.721,2.939
		c1.105,0,2.005-0.544,2.515-1.517l-0.46-0.268c-0.401,0.754-1.106,1.276-1.981,1.276c-1.301,0-2.287-0.949-2.25-2.372H137.532z
		 M130.788,73.647h-0.546v10.023h0.546V73.647z M127.884,75.688c-0.279,0-0.497,0.23-0.497,0.498c0,0.278,0.218,0.498,0.497,0.498
		c0.28,0,0.498-0.22,0.498-0.498C128.382,75.919,128.164,75.688,127.884,75.688z M128.15,78.059h-0.546v5.612h0.546V78.059z
		 M120.593,83.671h0.546v-1.007h0.024c0.414,0.717,1.312,1.128,2.14,1.128c1.702,0,2.771-1.322,2.771-2.964
		c0-1.641-1.068-2.891-2.746-2.891c-0.863,0-1.689,0.388-2.164,1.092h-0.024v-5.382h-0.546V83.671z M123.313,83.284
		c-1.384,0-2.211-1.131-2.211-2.443c0-1.338,0.814-2.396,2.237-2.396c1.3,0,2.188,1.156,2.188,2.383
		C125.527,82.116,124.689,83.284,123.313,83.284z M116.279,78.445c1.385,0,2.444,1.046,2.444,2.432c0,1.361-1.071,2.407-2.444,2.407
		c-1.325,0-2.334-1.131-2.334-2.407C113.945,79.576,114.942,78.445,116.279,78.445z M116.315,77.938
		c-1.628,0-2.915,1.322-2.915,2.939c0,1.593,1.298,2.915,2.915,2.915c1.653,0,2.952-1.263,2.952-2.928
		C119.268,79.2,117.969,77.938,116.315,77.938z M105.682,78.059h-0.546v5.612h0.546v-3.085c0-0.913,0.218-2.141,1.398-2.141
		c1.094,0,1.253,0.888,1.253,1.763v3.463h0.546v-3.232c0-0.971,0.279-1.993,1.446-1.993c1.069,0,1.203,0.767,1.203,1.629v3.597
		h0.546v-3.523c0-1.228-0.291-2.21-1.736-2.21c-0.718,0-1.339,0.351-1.643,1.02c-0.29-0.656-0.861-1.02-1.579-1.02
		c-0.597,0-1.155,0.303-1.41,0.824h-0.024V78.059z"/>
	<path clip-path="url(#SVGID_2_)" fill="#2980B9" d="M89.562,12.52c-0.961,2.347-2.003,4.673-3.002,7.011
		c-7.165-2.905-14.624-4.446-22.627-4.001c-7.876,0.438-16.523,2.577-25.469,8.606c-4.247,2.861-7.642,6.061-10.401,9.386
		c-8.14,9.809-11.571,21.015-11.634,32.606c-2.558,0.058-5.093,0.014-7.647,0.056c-0.055-9.005,1.877-17.675,5.834-25.871
		c3.97-8.226,9.953-15.873,19.762-22.656c5.066-3.504,10.525-5.896,15.227-7.304C64.066,6.025,77.381,7.481,89.562,12.52"/>
	<path clip-path="url(#SVGID_2_)" fill="#2980B9" d="M82.358,29.241c-0.819,2.018-1.735,4.013-2.568,6.028
		c-4.732-1.946-9.63-2.892-14.941-2.62c-5.171,0.264-11.001,1.708-16.81,5.668c-5.56,3.792-8.908,8.306-11.16,12.971
		c-2.279,4.72-3.389,9.646-3.321,14.779c-2.194,0.047-4.366-0.001-6.562,0.056c-0.048-6.154,1.245-12.139,3.963-17.77
		c2.723-5.641,6.839-10.91,13.556-15.554c3.431-2.373,7.265-4.051,10.458-5.035C64.862,24.71,74.048,25.887,82.358,29.241"/>
	<path clip-path="url(#SVGID_2_)" fill="#2980B9" d="M76.646,42.592c-0.761,1.639-1.43,3.299-2.157,4.946
		c-2.829-1.083-5.778-1.728-8.941-1.533c-3.144,0.193-6.536,1.047-10.068,3.442c-3.268,2.216-5.291,4.977-6.632,7.742
		c-1.368,2.822-1.908,5.812-1.943,8.823c-1.825,0.041-3.635,0.024-5.451,0.033c-0.01-5.948,1.795-11.64,6.012-16.649
		c1.439-1.71,3.175-3.224,5.387-4.753c2.085-1.442,4.628-2.488,6.591-3.069C65.665,39.732,71.47,40.36,76.646,42.592"/>
</g>
</svg>
